<svg width="25" height="25" viewBox="0 0 25 25" fill="none" xmlns="http://www.w3.org/2000/svg">
<path d="M3.125 10.4167H21.875V6.25008C21.875 5.69755 21.6555 5.16764 21.2648 4.77694C20.8741 4.38624 20.3442 4.16675 19.7917 4.16675H5.20833C4.6558 4.16675 4.12589 4.38624 3.73519 4.77694C3.34449 5.16764 3.125 5.69755 3.125 6.25008V20.8334C3.125 21.3859 3.34449 21.9159 3.73519 22.3066C4.12589 22.6973 4.6558 22.9167 5.20833 22.9167H12.5" stroke="#111827" stroke-width="2.08333" stroke-linecap="round" stroke-linejoin="round"/>
<path d="M8.33301 2.08325V6.24992" stroke="#111827" stroke-width="2.08333" stroke-linecap="round" stroke-linejoin="round"/>
<path d="M16.667 2.08325V6.24992" stroke="#111827" stroke-width="2.08333" stroke-linecap="round" stroke-linejoin="round"/>
<path d="M22.1775 15.3124C21.8225 14.9592 21.3708 14.7192 20.8794 14.6228C20.3881 14.5264 19.8791 14.5779 19.417 14.7707C19.1045 14.8957 18.8233 15.0832 18.5837 15.3228L18.2295 15.677L17.865 15.3228C17.5112 14.9679 17.06 14.7259 16.5686 14.6277C16.0772 14.5294 15.5676 14.5792 15.1045 14.7707C14.792 14.8957 14.5212 15.0832 14.2816 15.3228C13.292 16.302 13.24 17.9582 14.49 19.2187L18.2295 22.9166L21.9795 19.2187C23.2295 17.9582 23.167 16.302 22.1775 15.3228V15.3124Z" stroke="#111827" stroke-width="2.08333" stroke-linecap="round" stroke-linejoin="round"/>
</svg>
