<svg width="25" height="25" viewBox="0 0 25 25" fill="none" xmlns="http://www.w3.org/2000/svg">
<path d="M3.125 10.4167H21.875V6.25002C21.875 5.69749 21.6555 5.16758 21.2648 4.77688C20.8741 4.38618 20.3442 4.16669 19.7917 4.16669H5.20833C4.6558 4.16669 4.12589 4.38618 3.73519 4.77688C3.34449 5.16758 3.125 5.69749 3.125 6.25002V20.8334C3.125 21.3859 3.34449 21.9158 3.73519 22.3065C4.12589 22.6972 4.6558 22.9167 5.20833 22.9167H12.5" stroke="#6B7280" stroke-width="2.08333" stroke-linecap="round" stroke-linejoin="round"/>
<path d="M8.33325 2.08331V6.24998" stroke="#6B7280" stroke-width="2.08333" stroke-linecap="round" stroke-linejoin="round"/>
<path d="M16.6667 2.08331V6.24998" stroke="#6B7280" stroke-width="2.08333" stroke-linecap="round" stroke-linejoin="round"/>
<path d="M22.177 15.3125C21.822 14.9593 21.3703 14.7193 20.8789 14.6229C20.3876 14.5265 19.8786 14.5779 19.4166 14.7708C19.1041 14.8958 18.8228 15.0833 18.5832 15.3229L18.2291 15.6771L17.8645 15.3229C17.5107 14.9679 17.0595 14.726 16.5681 14.6277C16.0767 14.5294 15.5671 14.5792 15.1041 14.7708C14.7916 14.8958 14.5207 15.0833 14.2811 15.3229C13.2916 16.3021 13.2395 17.9583 14.4895 19.2187L18.2291 22.9166L21.9791 19.2187C23.2291 17.9583 23.1666 16.3021 22.177 15.3229V15.3125Z" stroke="#6B7280" stroke-width="2.08333" stroke-linecap="round" stroke-linejoin="round"/>
</svg>
