<svg width="24" height="24" viewBox="0 0 24 24" fill="none" xmlns="http://www.w3.org/2000/svg">
<path d="M13.2496 0.0793388C19.2793 0.71405 24 5.79174 24 12.0198C24 18.6446 18.6446 24 12.0198 24C5.39504 24 0 18.6446 0 12.0198C0 5.39504 5.35537 0 12.0198 0C12.4165 0 12.8529 0.0396694 13.2496 0.0793388ZM13.8843 23.1669C20.0331 22.1355 24.1983 16.3041 23.1669 10.1157C22.2942 4.99835 18.1289 1.26942 13.2099 0.753719C12.2182 0.634711 11.1868 0.67438 10.1554 0.833058C8.92562 1.0314 7.77521 1.4281 6.7438 1.98347C12.1388 3.84793 15.0744 6.66446 15.2727 9.52066C15.3917 11.3058 14.5587 12.5752 13.4479 13.6066L21.1438 13.0909C21.3421 13.0909 21.4215 13.3289 21.1835 13.4083L2.81653 18.6446C4.68099 21.2231 7.57686 22.9289 10.7901 23.2463C11.8215 23.3653 12.8529 23.3653 13.8843 23.1669ZM8.84628 12.2579C9.83802 8.48926 8.6876 4.52231 5.95041 2.41983C2.22149 4.8 0.0396694 9.24298 0.833058 13.8843C1.07107 15.4314 1.62645 16.8198 2.41983 18.0496C5.35537 17.2562 7.93388 15.7091 8.84628 12.2579Z" fill="white"/>
<path d="M13.8843 23.1669C20.0331 22.1355 24.1983 16.3041 23.1669 10.1157C22.2942 4.99835 18.1289 1.26942 13.2099 0.753719C12.2182 0.634711 11.1868 0.67438 10.1554 0.833058C8.92562 1.0314 7.77521 1.4281 6.7438 1.98347C12.1388 3.84793 15.0744 6.66446 15.2727 9.52066C15.3917 11.3058 14.5587 12.5752 13.4479 13.6066L21.1438 13.0909C21.3421 13.0909 21.4215 13.3289 21.1835 13.4083L2.81653 18.6446C4.68099 21.2231 7.57686 22.9289 10.7901 23.2463C11.8215 23.3653 12.8529 23.3653 13.8843 23.1669ZM8.84628 12.2579C9.83802 8.48926 8.6876 4.52231 5.95041 2.41983C2.22149 4.8 0.0396694 9.24298 0.833058 13.8843C1.07107 15.4314 1.62645 16.8198 2.41983 18.0496C5.35537 17.2562 7.93388 15.7091 8.84628 12.2579Z" fill="#C70A0C"/>
</svg>
