<svg width="25" height="25" viewBox="0 0 25 25" fill="none" xmlns="http://www.w3.org/2000/svg">
<path d="M18.75 20.8333C18.75 19.1756 18.0915 17.5859 16.9194 16.4138C15.7473 15.2417 14.1576 14.5833 12.5 14.5833C10.8424 14.5833 9.25269 15.2417 8.08058 16.4138C6.90848 17.5859 6.25 19.1756 6.25 20.8333" stroke="#111827" stroke-width="2.08333" stroke-linecap="round" stroke-linejoin="round"/>
<path d="M12.4997 14.5833C14.8009 14.5833 16.6663 12.7179 16.6663 10.4167C16.6663 8.11548 14.8009 6.25 12.4997 6.25C10.1985 6.25 8.33301 8.11548 8.33301 10.4167C8.33301 12.7179 10.1985 14.5833 12.4997 14.5833Z" stroke="#111827" stroke-width="2.08333" stroke-linecap="round" stroke-linejoin="round"/>
<path d="M12.4997 22.9166C18.2526 22.9166 22.9163 18.2529 22.9163 12.4999C22.9163 6.74695 18.2526 2.08325 12.4997 2.08325C6.74671 2.08325 2.08301 6.74695 2.08301 12.4999C2.08301 18.2529 6.74671 22.9166 12.4997 22.9166Z" stroke="#111827" stroke-width="2.08333" stroke-linecap="round" stroke-linejoin="round"/>
</svg>
