<svg width="25" height="25" viewBox="0 0 25 25" fill="none" xmlns="http://www.w3.org/2000/svg">
<path d="M18.75 20.8333C18.75 19.1757 18.0915 17.586 16.9194 16.4139C15.7473 15.2418 14.1576 14.5833 12.5 14.5833C10.8424 14.5833 9.25269 15.2418 8.08058 16.4139C6.90848 17.586 6.25 19.1757 6.25 20.8333" stroke="#6B7280" stroke-width="2.08333" stroke-linecap="round" stroke-linejoin="round"/>
<path d="M12.4999 14.5833C14.8011 14.5833 16.6666 12.7179 16.6666 10.4167C16.6666 8.11548 14.8011 6.25 12.4999 6.25C10.1987 6.25 8.33325 8.11548 8.33325 10.4167C8.33325 12.7179 10.1987 14.5833 12.4999 14.5833Z" stroke="#6B7280" stroke-width="2.08333" stroke-linecap="round" stroke-linejoin="round"/>
<path d="M12.4999 22.9166C18.2529 22.9166 22.9166 18.2529 22.9166 12.5C22.9166 6.74701 18.2529 2.08331 12.4999 2.08331C6.74695 2.08331 2.08325 6.74701 2.08325 12.5C2.08325 18.2529 6.74695 22.9166 12.4999 22.9166Z" stroke="#6B7280" stroke-width="2.08333" stroke-linecap="round" stroke-linejoin="round"/>
</svg>
